<svg xmlns="http://www.w3.org/2000/svg" width="37.521" height="34.364" viewBox="0 0 37.521 34.364">
    <defs>
        <linearGradient id="linear-gradient" x2="1" y1=".5" y2=".5" gradientUnits="objectBoundingBox">
            <stop offset="0" stop-color="#3a4354"/>
            <stop offset="1" stop-color="#3a4354"/>
        </linearGradient>
        <style>
            .cls-1{fill:url(#linear-gradient)}
        </style>
    </defs>
    <g id="Group_13" transform="translate(-37.97 -116.911)">
        <g id="Group_12">
            <path id="Path_11" d="M72.9 151.275H40.568v-.453q.009-8.423.009-16.845a.9.9 0 0 1 .415-.82q7.744-5.7 15.469-11.439a.4.4 0 0 1 .582.009q7.743 5.741 15.5 11.463a.79.79 0 0 1 .362.724q-.015 8.482-.007 16.965zm-19.757-12.64h7.2v10.771h10.698v-.449q0-7.1.009-14.2a.622.622 0 0 0-.289-.562Q63.873 129.108 57 124.01a.357.357 0 0 0-.514.01q-6.861 5.085-13.731 10.157a.616.616 0 0 0-.3.554q.014 7.142.01 14.284c0 .127.013.255.019.382h10.658z" class="cls-1"/>
            <path id="Path_12" d="M75.491 130.665l-1.776 1.2-3.226-2.382q-6.739-4.98-13.473-9.969a.4.4 0 0 0-.58.014q-7.166 5.31-14.343 10.608l-2.336 1.73-1.787-1.211c.859-.637 1.678-1.247 2.5-1.854q7.9-5.838 15.786-11.685a.648.648 0 0 1 .943-.012q8.973 6.669 17.972 13.3c.094.08.186.155.32.261z" class="cls-1"/>
        </g>
    </g>
</svg>
