<svg xmlns="http://www.w3.org/2000/svg" width="51.477" height="25.606" viewBox="0 0 51.477 25.606">
    <defs>
        <style>
            .cls-1{fill:#1582c8}
        </style>
    </defs>
    <g id="Group_103" transform="translate(-444.39 -938.394)">
        <path id="Path_323" d="M451.537 956.047l7.558-6.441c-.666-2.414-.155-4.167 1.541-5.346a4.291 4.291 0 0 1 4.945.073c1.634 1.2 2.115 2.992 1.412 5.353l4.915 4.314c2.7-1.785 4.513-1.7 6.517.326l9.13-9.463a4.3 4.3 0 1 1 8.053-1.884 4.273 4.273 0 0 1-3.993 4.09 5.62 5.62 0 0 1-1.847-.374.712.712 0 0 0-.866.146c-3.069 3.059-6.158 6.1-9.227 9.157a.986.986 0 0 0-.238.676 4.309 4.309 0 1 1-8.609.355.669.669 0 0 1 .012-.262c.381-.852-.145-1.3-.726-1.783-1.484-1.238-2.934-2.517-4.387-3.77a4.491 4.491 0 0 1-5.016.072.617.617 0 0 0-.554.1c-2.351 1.988-4.682 4-7.037 5.984-.315.265-.182.468-.094.736a4.309 4.309 0 0 1-6.067 5.108 4.114 4.114 0 0 1-2.421-3.992 4.255 4.255 0 0 1 5.608-3.8c.454.154.879.391 1.391.625zm-.376 3.446a2.238 2.238 0 0 0-2.266-2.249 2.271 2.271 0 0 0-2.227 2.229 2.3 2.3 0 0 0 2.28 2.262 2.259 2.259 0 0 0 2.213-2.242zm40.162-14.359a2.244 2.244 0 1 0-2.254-2.269 2.27 2.27 0 0 0 2.254 2.269zm-25.934 2.657a2.262 2.262 0 0 0-2.286-2.241 2.313 2.313 0 0 0-2.2 2.273 2.273 2.273 0 0 0 2.307 2.223 2.216 2.216 0 0 0 2.179-2.255zm11.878 9.254a2.255 2.255 0 0 0-2.245-2.272 2.3 2.3 0 0 0-2.245 2.227 2.28 2.28 0 0 0 2.266 2.263 2.231 2.231 0 0 0 2.224-2.218z" class="cls-1"/>
        <path id="Path_324" d="M475.078 952.517a4.553 4.553 0 1 0 4.554 4.553 4.553 4.553 0 0 0-4.554-4.553zm0 6.863a2.31 2.31 0 1 1 2.31-2.31 2.31 2.31 0 0 1-2.31 2.31z" class="cls-1"/>
        <path id="Path_325" d="M491.313 938.394a4.553 4.553 0 1 0 4.554 4.553 4.553 4.553 0 0 0-4.554-4.553zm0 6.863a2.31 2.31 0 1 1 2.31-2.31 2.31 2.31 0 0 1-2.31 2.31z" class="cls-1"/>
        <path id="Path_326" d="M463.2 943.277a4.554 4.554 0 1 0 4.553 4.554 4.554 4.554 0 0 0-4.553-4.554zm0 6.864a2.31 2.31 0 1 1 2.309-2.31 2.31 2.31 0 0 1-2.309 2.31z" class="cls-1"/>
        <path id="Path_327" d="M448.943 954.893a4.553 4.553 0 1 0 4.554 4.553 4.553 4.553 0 0 0-4.554-4.553zm0 6.863a2.31 2.31 0 1 1 2.31-2.31 2.309 2.309 0 0 1-2.31 2.31z" class="cls-1"/>
    </g>
</svg>
