<svg id="Layer_1" data-name="Layer 1" xmlns="http://www.w3.org/2000/svg" width="205.89mm" height="80.19mm" viewBox="0 0 583.62 227.32">
  <defs>
    <style>
      .cls-1, .cls-2 {
        fill: #3a4354;
      }

      .cls-2 {
        fill-rule: evenodd;
      }
    </style>
  </defs>
  <title>Helix Sense Logo NEW</title>
  <g>
    <path class="cls-1" d="M330.36,329.72a61,61,0,0,0,7-6.37,96.73,96.73,0,0,0,7-8.22l12-16.09-11.14-17a147.16,147.16,0,0,0-8.56-12.17c-1.88-2.25-3.51-3.67-4.87-4.21h10.66a4.78,4.78,0,0,1,2.87.78,18.09,18.09,0,0,1,3.3,4.34l13,21.17,7-9.71a49.92,49.92,0,0,0,4.68-7.61,13.84,13.84,0,0,0,1.41-5.56,7.51,7.51,0,0,0-.89-3.41h13A166.82,166.82,0,0,0,374,282L372.6,284,364,295.76l18.43,26.44a33.15,33.15,0,0,0,3.68,4.62,19.32,19.32,0,0,0,3.79,2.9h-9.47a8.28,8.28,0,0,1-4-.79,10,10,0,0,1-3-3.31l-14.65-23.08-6.6,9.32c-.49.69-1.18,1.69-2.1,3-4.18,5.85-6.27,9.68-6.27,11.46a5.45,5.45,0,0,0,.33,1.95,4,4,0,0,0,1.08,1.47Zm-19,0c.91-1,1.56-3.22,1.92-6.73s.57-11,.57-22.55v-4.09q0-18.81-.57-24c-.36-3.46-1-5.67-1.92-6.65h13.55c-.91.94-1.56,3.09-1.93,6.49s-.56,10.57-.56,21.59v7.77q0,16.58.56,21.68c.37,3.39,1,5.56,1.93,6.51Zm-43.83-64h13.55c-.92,1-1.56,3.21-1.93,6.72s-.56,11-.56,22.43v4.1q0,10.74.25,17.91a66.1,66.1,0,0,0,.68,9.18c.64,0,1.33.05,2.05.06s1.8,0,3.2,0q7.78,0,12-1.58a14.29,14.29,0,0,0,6.84-5.41l-2.19,10c-1.36.25-2.89.45-4.57.59s-3.48.2-5.41.2c-1.48,0-4.5,0-9.05-.1s-8.33-.1-11.37-.1H267.5c.91-1,1.56-3.22,1.93-6.73s.56-11,.56-22.55v-4.09q0-18.81-.56-24C269.06,268.87,268.41,266.66,267.5,265.68Zm-49.33,64c.92-1,1.56-3.22,1.93-6.73s.57-11,.57-22.55v-4.09c0-12.56-.19-20.55-.57-24s-1-5.67-1.93-6.65h6.2q6.6,0,15-.15c5.58-.11,9-.15,10.17-.15l.58,0c1,0,2,.05,2.93.05l.78,9.4a7.16,7.16,0,0,0-4.7-4.28c-2.34-.82-6.83-1.22-13.43-1.22h-5.55a42.85,42.85,0,0,0-.71,7q-.22,4.85-.22,14v3.32l2.78.13c1,0,2.7.05,5,.05,3.92,0,7.2-.09,9.86-.27a61.31,61.31,0,0,0,7.16-.83,14.86,14.86,0,0,1-7.23,4.48q-4.5,1.32-15,1.32l-1.09-.06c-.56,0-1.06-.05-1.48-.05v6.5c0,6.11.07,10.81.22,14.07a43.23,43.23,0,0,0,.71,7h5.73q9.88,0,14.84-1.58a14.83,14.83,0,0,0,7.69-5.31l-1.71,10a44.3,44.3,0,0,1-4.55.59c-1.69.13-3.49.2-5.36.2-1.53,0-4.55,0-9.08-.1s-8.31-.1-11.36-.1Zm-22.63-36.07v-3.32q0-14-.56-18.51c-.36-3-1-5.05-2-6.14H206.6c-1,1-1.64,3.44-2,7.4s-.52,13.46-.52,28.45c0,11.05.19,18.28.53,21.68s1,5.56,2,6.51H193c1-1.14,1.66-3.3,2-6.48s.56-9.29.56-18.29v-7.6H165.76V305q0,14.67.57,18.94c.36,2.84,1,4.79,1.92,5.83H154.7c.91-1,1.57-3.22,1.93-6.73s.56-11,.56-22.53v-4.1q0-18.83-.56-24c-.36-3.46-1-5.67-1.93-6.65h13.55c-.91,1-1.56,3-1.92,5.79s-.57,9.12-.57,18.86v3.32Z" transform="translate(-154.7 -183.98)"/>
    <path class="cls-1" d="M698.08,329.64c.92-1,1.56-3.21,1.93-6.72s.56-11,.56-22.55v-4.1q0-18.84-.56-24t-1.93-6.66h6.2c4.4,0,9.41-.05,15-.15s9-.15,10.18-.15a5.3,5.3,0,0,1,.58.05c1,0,2,0,2.93,0l.77,9.39a7.15,7.15,0,0,0-4.69-4.28c-2.34-.81-6.83-1.21-13.43-1.21h-5.55a42.57,42.57,0,0,0-.72,7q-.21,4.85-.21,14v3.31c.82.05,1.72.1,2.77.13s2.71,0,5,0c3.91,0,7.2-.08,9.86-.26a60.73,60.73,0,0,0,7.15-.84,14.71,14.71,0,0,1-7.22,4.48c-3,.89-8,1.32-15,1.32l-1.09-.05c-.57,0-1.06-.05-1.48-.05v6.49q0,9.18.21,14.07a42.67,42.67,0,0,0,.72,7h5.73q9.88,0,14.84-1.58a14.81,14.81,0,0,0,7.69-5.31l-1.72,10a41.33,41.33,0,0,1-4.54.58c-1.7.13-3.49.2-5.36.2q-2.3,0-9.08-.1c-4.52-.06-8.31-.1-11.36-.1Zm-50.8-2.56V316.15a20.86,20.86,0,0,0,7.55,7.58,20.6,20.6,0,0,0,10.4,2.61,13.18,13.18,0,0,0,9.41-3.41,11.52,11.52,0,0,0,3.62-8.76,11.76,11.76,0,0,0-2.44-7.33c-1.61-2.11-4.37-4.21-8.22-6.29-.3-.17-.73-.42-1.31-.73q-16.81-9.21-16.82-18.73a14.78,14.78,0,0,1,5.73-12q5.74-4.67,15-4.66,3,0,6.49.2c2.35.13,3.72.18,4.1.18.14,0,.4,0,.8.06s.77,0,1.05,0h2.52v10.41a12.22,12.22,0,0,0-5.28-4.83,17.62,17.62,0,0,0-7.9-1.66q-6.23,0-9.81,2.73a8.73,8.73,0,0,0-3.6,7.36q0,6.9,13.2,13.85l.62.3c5.52,2.93,9.45,5.81,11.81,8.68a14.79,14.79,0,0,1,3.55,9.7q0,8.06-6.57,13.74a24,24,0,0,1-16.22,5.68,39.59,39.59,0,0,1-8.17-.91A68.84,68.84,0,0,1,647.28,327.08ZM591,273.21l.3,32.24a134.38,134.38,0,0,0,.84,16.62,19.29,19.29,0,0,0,2.45,7.57H583c1.29-1.67,2.22-5.49,2.81-11.54s.87-14.83.87-26.41q0-15.36-.79-20c-.53-3.08-1.5-5.11-2.89-6.13h10.34c1.9,0,4,1.75,6.28,5.26.58.92,1.06,1.63,1.41,2.15q2.82,4.15,8.7,13.12,13.62,20.83,21.88,32.14l.1-28q0-13.47-.58-18.22c-.38-3.16-1-5.33-2-6.46h9.47c-1,.91-1.67,3.35-2,7.29s-.57,11.94-.57,24v33.07h-6.44q-3.3-5.26-16.48-24.39T591,273.21Zm-56.1,56.43c.91-1,1.56-3.21,1.92-6.72s.57-11,.57-22.55v-4.1q0-18.84-.57-24c-.36-3.46-1-5.68-1.92-6.66h6.19c4.4,0,9.42-.05,15-.15s9-.15,10.18-.15a5.71,5.71,0,0,1,.58.05c1,0,2,0,2.92,0l.78,9.39a7.19,7.19,0,0,0-4.7-4.28q-3.51-1.22-13.43-1.21h-5.55a42.85,42.85,0,0,0-.71,7c-.15,3.23-.21,7.91-.21,14v3.31c.81.05,1.72.1,2.77.13s2.7,0,5,0c3.92,0,7.21-.08,9.87-.26a61.25,61.25,0,0,0,7.15-.84,14.75,14.75,0,0,1-7.22,4.48c-3,.89-8,1.32-15,1.32l-1.1-.05c-.56,0-1.06-.05-1.47-.05v6.49c0,6.12.06,10.81.21,14.07a43,43,0,0,0,.71,7h5.73c6.6,0,11.54-.53,14.85-1.58a14.78,14.78,0,0,0,7.68-5.31l-1.71,10a41.53,41.53,0,0,1-4.55.58c-1.69.13-3.48.2-5.36.2-1.53,0-4.55,0-9.08-.1s-8.3-.1-11.36-.1Zm-50.81-2.56V316.15a20.89,20.89,0,0,0,7.56,7.58A20.56,20.56,0,0,0,502,326.34a13.19,13.19,0,0,0,9.42-3.41,11.54,11.54,0,0,0,3.61-8.76,11.7,11.7,0,0,0-2.44-7.33c-1.61-2.11-4.36-4.21-8.21-6.29-.31-.17-.74-.42-1.32-.73q-16.8-9.21-16.81-18.73a14.77,14.77,0,0,1,5.72-12c3.84-3.11,8.82-4.66,15-4.66q3,0,6.49.2c2.34.13,3.72.18,4.1.18.14,0,.4,0,.8.06s.76,0,1,0h2.53v10.41a12.22,12.22,0,0,0-5.28-4.83,17.62,17.62,0,0,0-7.9-1.66q-6.22,0-9.82,2.73a8.75,8.75,0,0,0-3.6,7.36q0,6.9,13.2,13.85l.63.3c5.52,2.93,9.45,5.81,11.81,8.68a14.79,14.79,0,0,1,3.55,9.7q0,8.06-6.57,13.74a24,24,0,0,1-16.23,5.68,39.74,39.74,0,0,1-8.17-.91A69.25,69.25,0,0,1,484.07,327.08Z" transform="translate(-154.7 -183.98)"/>
    <path class="cls-2" d="M353.77,409.75c-1.43-4,3.59-10.12,5.81-13.76,2.76-4.49,5.27-8.59,7.93-13l31.8-51.91c7.56-12,8.31-16.2,17.57-25.21l.14,38.4c0,11-2,11.59-6.59,18.89-4.95,7.83-4.82,7.91-8.68,16.21,13.9.45,56,.82,67.64-.16-.21-4-10.79-19.6-13.65-24.3-5.14-8.45-10-15.93-15-24.63-16.32-28.24-41.53-68.15-59.42-97C369.44,214.14,362,204.1,353.76,184l163.55,0c1.59,4.07-3.54,10.25-5.72,13.74l-57.36,90.09-.13-38.41c0-10.53,2.07-11.26,6.73-18.75l8.56-16.54-67.66.23c.28,4.86,25.76,44.28,28.71,49l59.34,97c12.16,19.71,19,28.68,27.74,49.49-4.76,1.53-158.92,2.12-163.75-.2" transform="translate(-154.7 -183.98)"/>
  </g>
</svg>
