<svg xmlns="http://www.w3.org/2000/svg" width="18.713" height="23" viewBox="0 0 18.713 23">
    <defs>
        <style>
            .cls-1{fill:#fff}
        </style>
    </defs>
    <g id="Group_29" transform="translate(-612.831 -683)">
        <path id="Path_51" d="M620.988 705.926a9.568 9.568 0 0 1-8.006-7.681 9.355 9.355 0 0 1 18.251-4.027 9.519 9.519 0 0 1-9.15 11.782 8.836 8.836 0 0 1-1.095-.074zm9.114-9.32a7.908 7.908 0 1 0-7.609 7.971 7.912 7.912 0 0 0 7.607-7.971z" class="cls-1"/>
        <path id="Path_52" d="M623.859 683a.871.871 0 0 1 .5.933c-.029.372-.006.748-.005 1.122a.745.745 0 0 1-.724.847v.789c-.5-.028-.973-.077-1.449-.077s-.937.049-1.421.078v-.775a2.1 2.1 0 0 1-.364-.127.677.677 0 0 1-.364-.625c0-.412.024-.825-.005-1.234a.875.875 0 0 1 .5-.931z" class="cls-1"/>
        <path id="Path_53" d="M618.435 687.267l-2.505 1.455c-.244-.425-.525-.884-.773-1.359a.689.689 0 0 1 .277-.92q.63-.386 1.282-.739a.7.7 0 0 1 .972.274c.262.436.512.879.747 1.289z" class="cls-1"/>
        <path id="Path_54" d="M628.46 688.722l-2.507-1.456c.251-.429.513-.915.813-1.375a.673.673 0 0 1 .9-.188c.44.239.875.49 1.3.753a.684.684 0 0 1 .254.923c-.244.468-.52.921-.76 1.343z" class="cls-1"/>
        <path id="Path_55" d="M622.221 690.283q.2.9.4 1.81c.324 1.453.651 2.907.97 4.361a1.391 1.391 0 0 1-1.213 1.656 1.431 1.431 0 0 1-1.6-1.159 1 1 0 0 1 0-.4q.681-3.1 1.374-6.2a.457.457 0 0 1 .024-.061z" class="cls-1"/>
    </g>
</svg>
